<svg width="150" height="150" viewBox="0 0 150 150" fill="none" xmlns="http://www.w3.org/2000/svg">
<path d="M75 142.188C37.9375 142.188 7.8125 112.062 7.8125 75C7.8125 37.9375 37.9375 7.8125 75 7.8125C112.062 7.8125 142.188 37.9375 142.188 75C142.188 112.062 112.062 142.188 75 142.188ZM75 17.1875C43.125 17.1875 17.1875 43.125 17.1875 75C17.1875 106.875 43.125 132.812 75 132.812C106.875 132.812 132.812 106.875 132.812 75C132.812 43.125 106.875 17.1875 75 17.1875Z" fill="#33A45E"/>
<path d="M66.125 97.375C64.875 97.375 63.6875 96.875 62.8125 96L45.125 78.3125C43.3125 76.5 43.3125 73.5 45.125 71.6875C46.9375 69.875 49.9375 69.875 51.75 71.6875L66.125 86.0625L98.25 53.9375C100.063 52.125 103.063 52.125 104.875 53.9375C106.688 55.75 106.688 58.75 104.875 60.5625L69.4375 96C68.5625 96.875 67.375 97.375 66.125 97.375Z" fill="#33A45E"/>
</svg>
