<svg width="649" height="512" viewBox="0 0 649 512" fill="none" xmlns="http://www.w3.org/2000/svg">
<path d="M337.448 423.694C429.921 423.694 504.885 348.615 504.885 255.999C504.885 163.384 429.921 88.3047 337.448 88.3047C244.976 88.3047 170.012 163.384 170.012 255.999C170.012 348.615 244.976 423.694 337.448 423.694Z" fill="#DBE8EC"/>
<path d="M563.715 220.904V202.794C563.715 199.341 562.345 196.029 559.907 193.587C557.469 191.145 554.162 189.774 550.714 189.774H504.825C501.377 189.774 498.071 188.402 495.633 185.96C493.194 183.518 491.825 180.206 491.825 176.753V158.643C491.825 155.19 493.194 151.878 495.633 149.436C498.071 146.994 501.377 145.622 504.825 145.622H506.274C509.722 145.622 513.029 144.25 515.467 141.808C517.905 139.367 519.275 136.055 519.275 132.601V114.492C519.275 111.038 517.905 107.726 515.467 105.284C513.029 102.843 509.722 101.471 506.274 101.471H172.869C169.421 101.471 166.114 102.843 163.676 105.284C161.238 107.726 159.868 111.038 159.868 114.492V132.601C159.868 136.055 161.238 139.367 163.676 141.808C166.114 144.25 169.421 145.622 172.869 145.622C176.317 145.622 179.624 146.994 182.062 149.436C184.5 151.878 185.87 155.19 185.87 158.643V176.753C185.87 180.206 184.5 183.518 182.062 185.96C179.624 188.402 176.317 189.774 172.869 189.774H122.593C119.145 189.774 115.839 191.145 113.401 193.587C110.962 196.029 109.593 199.341 109.593 202.794V220.904C109.593 224.357 110.962 227.669 113.401 230.111C115.839 232.553 119.145 233.925 122.593 233.925H142.321C144.028 233.925 145.719 234.262 147.296 234.916C148.873 235.57 150.307 236.53 151.514 237.739C152.721 238.948 153.679 240.383 154.332 241.963C154.985 243.543 155.322 245.236 155.322 246.946V265.056C155.322 268.509 153.952 271.821 151.514 274.263C149.076 276.705 145.769 278.076 142.321 278.076H142.273C138.825 278.076 135.518 279.448 133.08 281.89C130.642 284.332 129.272 287.644 129.272 291.097V309.207C129.272 312.66 130.642 315.972 133.08 318.414C135.518 320.856 138.825 322.228 142.273 322.228H145.127C146.835 322.228 148.525 322.565 150.102 323.219C151.68 323.873 153.113 324.832 154.32 326.042C155.527 327.251 156.485 328.686 157.138 330.266C157.792 331.846 158.128 333.539 158.128 335.249V353.358C158.128 356.812 156.758 360.124 154.32 362.566C151.882 365.008 148.575 366.379 145.127 366.379H98.286C94.8379 366.379 91.5311 367.751 89.093 370.193C86.6549 372.635 85.2852 375.947 85.2852 379.4V397.51C85.2852 400.963 86.6549 404.275 89.093 406.717C91.5312 409.159 94.838 410.531 98.286 410.531H513.254C516.702 410.531 520.009 409.159 522.447 406.717C524.885 404.275 526.255 400.963 526.255 397.51V379.4C526.255 375.947 524.885 372.635 522.447 370.193C520.009 367.751 516.702 366.379 513.254 366.379H501.982C498.534 366.379 495.227 365.007 492.789 362.566C490.351 360.124 488.981 356.812 488.981 353.358V335.249C488.981 331.795 490.351 328.483 492.789 326.042C495.227 323.6 498.534 322.228 501.982 322.228H528.561C532.009 322.228 535.316 320.856 537.754 318.414C540.192 315.972 541.562 312.66 541.562 309.207V291.097C541.562 287.644 540.192 284.332 537.754 281.89C535.316 279.448 532.009 278.076 528.561 278.076H520.498C517.05 278.076 513.743 276.705 511.305 274.263C508.867 271.821 507.497 268.509 507.497 265.056V246.946C507.497 243.492 508.867 240.181 511.305 237.739C513.743 235.297 517.05 233.925 520.498 233.925H550.714C554.162 233.925 557.469 232.553 559.907 230.111C562.345 227.669 563.715 224.357 563.715 220.904Z" fill="#DBE8EC"/>
<path d="M384.184 92.1602H416.437" stroke="#B9D4DB" strokeWidth="3" stroke-miterlimit="10" strokeLinecap="round"/>
<path d="M384.184 101.471H416.437" stroke="#B9D4DB" strokeWidth="3" stroke-miterlimit="10" strokeLinecap="round"/>
<path d="M384.184 110.781H416.437" stroke="#B9D4DB" strokeWidth="3" stroke-miterlimit="10" strokeLinecap="round"/>
<path d="M118.969 289.908H151.222" stroke="#B9D4DB" strokeWidth="3" stroke-miterlimit="10" strokeLinecap="round"/>
<path d="M118.969 299.219H151.222" stroke="#B9D4DB" strokeWidth="3" stroke-miterlimit="10" strokeLinecap="round"/>
<path d="M118.969 308.527H151.222" stroke="#B9D4DB" strokeWidth="3" stroke-miterlimit="10" strokeLinecap="round"/>
<path d="M504.887 375.234H537.14" stroke="#B9D4DB" strokeWidth="3" stroke-miterlimit="10" strokeLinecap="round"/>
<path d="M504.887 384.547H537.14" stroke="#B9D4DB" strokeWidth="3" stroke-miterlimit="10" strokeLinecap="round"/>
<path d="M504.887 393.855H537.14" stroke="#B9D4DB" strokeWidth="3" stroke-miterlimit="10" strokeLinecap="round"/>
<path d="M545.938 216.154C553.552 216.154 559.724 209.972 559.724 202.346C559.724 194.721 553.552 188.539 545.938 188.539C538.325 188.539 532.152 194.721 532.152 202.346C532.152 209.972 538.325 216.154 545.938 216.154Z" fill="#B9D4DB"/>
<path d="M509.558 219.471C513.506 219.471 516.707 216.266 516.707 212.312C516.707 208.358 513.506 205.152 509.558 205.152C505.611 205.152 502.41 208.358 502.41 212.312C502.41 216.266 505.611 219.471 509.558 219.471Z" fill="#B9D4DB"/>
<path d="M527.708 178.789C533.348 178.789 537.92 174.21 537.92 168.562C537.92 162.913 533.348 158.334 527.708 158.334C522.068 158.334 517.496 162.913 517.496 168.562C517.496 174.21 522.068 178.789 527.708 178.789Z" fill="#B9D4DB"/>
<path d="M164.125 405.829C173.184 405.829 180.528 398.474 180.528 389.401C180.528 380.328 173.184 372.973 164.125 372.973C155.066 372.973 147.723 380.328 147.723 389.401C147.723 398.474 155.066 405.829 164.125 405.829Z" fill="#B9D4DB"/>
<path d="M131.692 406.153C136.411 406.153 140.236 402.322 140.236 397.596C140.236 392.87 136.411 389.039 131.692 389.039C126.974 389.039 123.148 392.87 123.148 397.596C123.148 402.322 126.974 406.153 131.692 406.153Z" fill="#B9D4DB"/>
<path d="M121.659 374.13C124.381 374.13 126.587 371.92 126.587 369.194C126.587 366.468 124.381 364.258 121.659 364.258C118.937 364.258 116.73 366.468 116.73 369.194C116.73 371.92 118.937 374.13 121.659 374.13Z" fill="#B9D4DB"/>
<path d="M146.096 368.38C152.621 368.38 157.91 363.082 157.91 356.547C157.91 350.012 152.621 344.715 146.096 344.715C139.571 344.715 134.281 350.012 134.281 356.547C134.281 363.082 139.571 368.38 146.096 368.38Z" fill="#B9D4DB"/>
<path d="M250.043 151.891C259.102 151.891 266.446 144.536 266.446 135.463C266.446 126.39 259.102 119.035 250.043 119.035C240.984 119.035 233.641 126.39 233.641 135.463C233.641 144.536 240.984 151.891 250.043 151.891Z" fill="#B9D4DB"/>
<path d="M250.712 110.524C255.431 110.524 259.256 106.693 259.256 101.967C259.256 97.2413 255.431 93.4102 250.712 93.4102C245.993 93.4102 242.168 97.2413 242.168 101.967C242.168 106.693 245.993 110.524 250.712 110.524Z" fill="#B9D4DB"/>
<path d="M307.617 114.373C311.701 114.373 315.012 111.057 315.012 106.967C315.012 102.876 311.701 99.5605 307.617 99.5605C303.533 99.5605 300.223 102.876 300.223 106.967C300.223 111.057 303.533 114.373 307.617 114.373Z" fill="#B9D4DB"/>
<path d="M280.714 104.706C283.435 104.706 285.642 102.496 285.642 99.7699C285.642 97.0439 283.435 94.834 280.714 94.834C277.992 94.834 275.785 97.0439 275.785 99.7699C275.785 102.496 277.992 104.706 280.714 104.706Z" fill="#B9D4DB"/>
<path d="M286.443 138.546C292.968 138.546 298.258 133.248 298.258 126.713C298.258 120.178 292.968 114.881 286.443 114.881C279.918 114.881 274.629 120.178 274.629 126.713C274.629 133.248 279.918 138.546 286.443 138.546Z" fill="#B9D4DB"/>
<path d="M483.218 291.561L374.176 350.388V216.949L483.218 182.855V291.561Z" fill="#E06714"/>
<path d="M374.178 216.948L245.456 203.906L219.074 164.925C218.769 164.474 218.592 163.948 218.563 163.404C218.534 162.86 218.653 162.318 218.908 161.837C219.163 161.355 219.544 160.953 220.01 160.672C220.476 160.391 221.01 160.242 221.554 160.242H342.812C343.359 160.242 343.896 160.392 344.365 160.677C344.833 160.961 345.214 161.368 345.467 161.854L374.178 216.948Z" fill="#F9AE2B"/>
<path d="M245.453 337.346L200.498 327.978C199.824 327.838 199.219 327.469 198.785 326.934C198.35 326.399 198.113 325.731 198.113 325.041V197.73C198.113 197.285 198.212 196.844 198.404 196.442C198.595 196.039 198.873 195.684 199.219 195.403C199.564 195.122 199.968 194.921 200.4 194.816C200.833 194.71 201.283 194.703 201.719 194.793L245.453 203.907V337.346Z" fill="#F9AE2B"/>
<path d="M417.574 364.859L374.176 350.388V216.949L419.467 232.051C420.063 232.249 420.582 232.631 420.95 233.142C421.318 233.653 421.516 234.267 421.516 234.897V362.012C421.516 362.488 421.403 362.956 421.187 363.379C420.971 363.802 420.657 364.168 420.272 364.446C419.887 364.724 419.442 364.906 418.973 364.978C418.504 365.05 418.025 365.009 417.574 364.859Z" fill="#F9AE2B"/>
<path d="M374.176 350.387L245.453 337.345V203.906L374.176 216.948V350.387Z" fill="#409CB5"/>
<path d="M341.443 386.093L210.102 380.844L245.453 337.348L374.176 350.39L343.815 385.073C343.52 385.409 343.154 385.675 342.744 385.852C342.334 386.028 341.889 386.11 341.443 386.093Z" fill="#F9AE2B"/>
<path d="M374.176 216.95L483.218 182.856L349.934 170.43L374.176 216.95Z" fill="#EE781D"/>
<path d="M245.453 337.345L374.176 277.147V216.948L245.453 203.906V337.345Z" fill="#25788E"/>
<path d="M253.171 293.863C253.171 293.863 267.234 287.701 270.97 292.102C274.705 296.504 283.055 298.484 283.055 298.484L290.306 286.16L310.083 295.403L320.85 310.148L313.818 327.534C313.818 327.534 299.535 327.314 292.724 330.175C285.912 333.036 268.113 333.256 268.113 333.256L259.983 317.631C259.983 317.631 249.656 302.446 253.171 293.863Z" fill="#DBE8EC"/>
<path d="M283.055 298.484C284.407 299.684 285.706 300.929 286.979 302.196C288.264 303.453 289.499 304.751 290.74 306.045C291.954 307.361 293.201 308.649 294.378 309.996C295.565 311.334 296.775 312.654 297.922 314.026L295.391 315.28C294.817 312.888 294.25 310.493 293.742 308.086C293.224 305.68 292.78 303.258 292.315 300.841C291.469 295.987 290.679 291.121 290.306 286.16C292.1 290.799 293.478 295.532 294.799 300.278C295.417 302.661 296.057 305.039 296.622 307.433C297.198 309.826 297.715 312.231 298.225 314.638L298.229 314.659C298.296 314.977 298.255 315.308 298.113 315.6C297.97 315.892 297.734 316.127 297.443 316.269C297.151 316.411 296.82 316.451 296.503 316.383C296.186 316.315 295.901 316.142 295.693 315.893C294.549 314.518 293.466 313.093 292.361 311.685C291.246 310.286 290.2 308.829 289.122 307.399C288.071 305.947 287.015 304.499 286.006 303.01C284.987 301.531 283.994 300.03 283.055 298.484Z" fill="#BAD5DB"/>
<path d="M310.083 295.402C309.244 297.214 308.3 298.954 307.359 300.697C306.394 302.422 305.422 304.144 304.397 305.829C303.402 307.534 302.331 309.187 301.287 310.859C300.234 312.525 299.121 314.151 298.042 315.798L296.516 313.494C298.517 313.082 300.526 312.708 302.538 312.351C304.559 312.035 306.567 311.659 308.597 311.392C310.621 311.091 312.655 310.846 314.693 310.616C316.738 310.423 318.779 310.214 320.85 310.147C318.913 310.883 316.948 311.476 314.986 312.084C313.016 312.656 311.044 313.213 309.061 313.714C307.084 314.249 305.085 314.674 303.099 315.16C301.104 315.605 299.106 316.033 297.101 316.423L297.069 316.43C296.779 316.486 296.479 316.454 296.207 316.338C295.935 316.223 295.703 316.028 295.543 315.779C295.382 315.531 295.299 315.24 295.305 314.944C295.311 314.648 295.405 314.361 295.575 314.119C296.708 312.507 297.808 310.873 298.967 309.28C300.135 307.692 301.276 306.086 302.493 304.532C303.681 302.958 304.922 301.42 306.169 299.886C307.44 298.369 308.709 296.85 310.083 295.402Z" fill="#BAD5DB"/>
<path d="M313.817 327.534C312.195 326.764 310.66 325.875 309.117 324.997C307.594 324.093 306.084 323.17 304.605 322.206C301.629 320.302 298.748 318.268 295.921 316.162L298.084 315.734C296.375 318.524 294.603 321.276 292.703 323.95C291.773 325.299 290.786 326.614 289.794 327.926C288.779 329.223 287.764 330.521 286.645 331.755C287.219 330.19 287.898 328.688 288.576 327.186C289.278 325.699 289.985 324.214 290.749 322.764C292.236 319.84 293.852 316.993 295.531 314.185C295.631 314.017 295.763 313.871 295.919 313.754C296.076 313.638 296.254 313.553 296.443 313.506C296.632 313.458 296.829 313.448 297.022 313.477C297.215 313.505 297.401 313.572 297.568 313.672L297.681 313.747L297.694 313.757C300.536 315.842 303.326 318 306.019 320.288C307.375 321.419 308.7 322.592 310.012 323.783C311.304 325.002 312.604 326.208 313.817 327.534Z" fill="#BAD5DB"/>
<path d="M253.172 293.863C260.763 296.718 268.168 299.961 275.546 303.26C279.217 304.944 282.898 306.611 286.536 308.366C290.193 310.08 293.817 311.864 297.439 313.653L297.45 313.658C297.681 313.772 297.877 313.945 298.018 314.16C298.16 314.375 298.242 314.624 298.256 314.881C298.27 315.138 298.216 315.395 298.098 315.624C297.98 315.853 297.804 316.046 297.587 316.185C295.196 317.709 292.754 319.154 290.337 320.638C287.924 322.129 285.459 323.538 283.023 324.992C280.563 326.408 278.113 327.841 275.624 329.212C273.147 330.601 270.643 331.949 268.114 333.257C270.365 331.511 272.644 329.81 274.951 328.153C277.244 326.474 279.577 324.858 281.9 323.225C284.246 321.629 286.563 319.988 288.933 318.43C291.299 316.865 293.639 315.261 296.03 313.736L296.179 316.267C292.528 314.539 288.878 312.808 285.263 311.006C281.629 309.244 278.036 307.395 274.435 305.564C267.267 301.83 260.126 298.04 253.172 293.863Z" fill="#BAD5DB"/>
<path d="M259.086 316.224C261.653 315.253 264.122 314.04 266.459 312.6C268.635 311.314 270.447 309.493 271.724 307.31C272.83 305.075 273.228 302.555 272.865 300.087C272.492 297.37 271.858 294.696 270.97 292.102C272.944 294.25 274.385 296.832 275.178 299.641C276.084 302.661 275.793 305.913 274.365 308.723C272.825 311.416 270.427 313.514 267.555 314.679C264.888 315.841 261.99 316.37 259.086 316.224Z" fill="#BAD5DB"/>
<path d="M281.547 307.578C281.385 309.629 281.032 311.66 280.495 313.645C279.983 315.599 279.366 317.523 278.648 319.409C277.933 321.298 277.116 323.145 276.199 324.944C275.282 326.785 274.194 328.536 272.949 330.173C273.108 328.121 273.459 326.089 273.998 324.104C274.509 322.151 275.127 320.227 275.849 318.341C276.566 316.454 277.385 314.607 278.301 312.808C279.219 310.968 280.306 309.217 281.547 307.578Z" fill="#BAD5DB"/>
<path d="M252.443 366.414C252.443 366.414 241.73 377.424 236.615 374.755C231.5 372.085 223.02 373.398 223.02 373.398L220.934 387.549L199.138 386.442L183.621 376.84L183.602 358.082C183.602 358.082 196.917 352.902 202.152 347.683C207.388 342.465 223.794 335.551 223.794 335.551L237.199 346.962C237.199 346.962 252.474 357.136 252.443 366.414Z" fill="#C0D8DD"/>
<path d="M223.019 373.4C219.699 372.032 216.454 370.52 213.223 368.983C211.617 368.195 209.999 367.432 208.408 366.616C206.813 365.808 205.21 365.017 203.632 364.178L204.881 362.768C207.739 366.771 210.499 370.842 213.206 374.951C215.881 379.082 218.524 383.236 220.933 387.552C217.727 383.791 214.754 379.868 211.813 375.923C208.904 371.955 206.049 367.949 203.291 363.876L203.284 363.866C203.163 363.686 203.105 363.471 203.119 363.255C203.134 363.039 203.221 362.834 203.365 362.673C203.51 362.512 203.704 362.404 203.917 362.366C204.13 362.329 204.35 362.364 204.541 362.465C206.118 363.306 207.67 364.195 209.231 365.067C210.796 365.93 212.332 366.847 213.883 367.74C216.963 369.561 220.029 371.409 223.019 373.4Z" fill="#9FC6CC"/>
<path d="M199.138 386.442C199.566 382.503 200.182 378.604 200.862 374.719C201.53 370.832 202.309 366.969 203.114 363.111L204.633 364.151L199.495 367.497C197.758 368.575 196.043 369.688 194.287 370.739C192.545 371.808 190.781 372.847 189.012 373.876C187.229 374.886 185.451 375.903 183.621 376.84C185.202 375.524 186.835 374.288 188.463 373.044C190.104 371.82 191.752 370.605 193.42 369.421C195.075 368.218 196.771 367.077 198.445 365.903L203.538 362.488C203.703 362.378 203.897 362.319 204.095 362.32C204.293 362.321 204.486 362.382 204.649 362.493C204.813 362.605 204.939 362.764 205.012 362.948C205.085 363.132 205.101 363.334 205.058 363.528C204.214 367.378 203.343 371.221 202.362 375.042C201.392 378.864 200.359 382.673 199.138 386.442Z" fill="#9FC6CC"/>
<path d="M183.602 358.084C185.365 358.298 187.105 358.606 188.847 358.906C190.583 359.227 192.316 359.563 194.04 359.933C197.492 360.658 200.919 361.481 204.332 362.359L203.107 363.164C203.388 361.552 203.637 359.934 203.944 358.326C204.249 356.717 204.541 355.107 204.886 353.505C205.551 350.297 206.276 347.098 207.189 343.93C207.068 347.225 206.759 350.49 206.39 353.746C206.218 355.376 205.993 356.997 205.78 358.62C205.571 360.244 205.302 361.859 205.066 363.478C205.028 363.736 204.89 363.968 204.682 364.123C204.474 364.279 204.212 364.345 203.955 364.307L203.857 364.288L203.841 364.284C200.426 363.416 197.024 362.493 193.648 361.473C191.958 360.969 190.276 360.432 188.599 359.881C186.926 359.308 185.252 358.744 183.602 358.084Z" fill="#9FC6CC"/>
<path d="M252.444 366.413C248.398 366.402 244.359 366.288 240.32 366.186C236.281 366.067 232.246 365.895 228.211 365.718C220.144 365.329 212.082 364.852 204.026 364.285L204.019 364.285C203.847 364.272 203.683 364.215 203.541 364.118C203.4 364.021 203.287 363.888 203.213 363.732C203.14 363.577 203.11 363.405 203.125 363.234C203.14 363.063 203.2 362.899 203.3 362.759C204.942 360.445 206.636 358.167 208.304 355.872C209.968 353.573 211.685 351.312 213.373 349.03C215.088 346.768 216.78 344.49 218.534 342.255C220.282 340.016 222.002 337.757 223.795 335.551C222.304 337.972 220.739 340.341 219.203 342.731C217.672 345.124 216.08 347.474 214.51 349.84C212.913 352.186 211.345 354.553 209.725 356.883C208.108 359.215 206.517 361.566 204.875 363.88L204.149 362.354C212.212 362.81 220.269 363.364 228.32 364.015C232.344 364.354 236.369 364.697 240.39 365.094C244.409 365.508 248.43 365.91 252.444 366.413Z" fill="#9FC6CC"/>
<path d="M238.559 347.926C236.417 349.659 234.481 351.633 232.787 353.807C231.139 355.848 230.073 358.298 229.705 360.896C229.566 362.164 229.67 363.447 230.012 364.676C230.341 365.946 230.85 367.163 231.524 368.288C232.966 370.633 234.674 372.803 236.615 374.755C234.109 373.358 231.928 371.443 230.218 369.138C228.365 366.73 227.474 363.718 227.72 360.688C228.132 357.711 229.493 354.947 231.599 352.807C233.553 350.71 235.924 349.048 238.559 347.926Z" fill="#9FC6CC"/>
<path d="M221.002 364.404C220.569 362.417 220.266 360.404 220.094 358.378C219.904 356.367 219.783 354.354 219.741 352.339C219.691 350.325 219.727 348.309 219.828 346.291C219.911 344.259 220.127 342.234 220.475 340.23C220.911 342.217 221.215 344.23 221.386 346.257C221.575 348.268 221.698 350.281 221.737 352.296C221.782 354.31 221.749 356.326 221.647 358.344C221.563 360.376 221.348 362.4 221.002 364.404Z" fill="#9FC6CC"/>
</svg>
