<svg width="608" height="609" viewBox="0 0 608 609" fill="none" xmlns="http://www.w3.org/2000/svg">
<path d="M267.789 575.82C165.973 575.82 83.4352 567.907 83.4352 558.146C83.4352 548.384 165.973 540.471 267.789 540.471C369.605 540.471 452.143 548.384 452.143 558.146C452.143 567.907 369.605 575.82 267.789 575.82Z" fill="#BAC8E5"/>
<path opacity="0.25" d="M349.988 465.718C240.686 465.718 152.078 377.11 152.078 267.807C152.078 158.505 240.686 69.8975 349.988 69.8975C459.291 69.8975 547.898 158.505 547.898 267.807C547.898 377.11 459.291 465.718 349.988 465.718Z" fill="url(#paint0_radial_2188_53224)"/>
<path d="M211.543 77.8777L193.335 84.6853L192.847 110.079L133.423 67.9795L211.543 77.8777Z" fill="#E36C00"/>
<path d="M180.652 92.1252L152.658 105.611L133.423 67.9795L180.652 92.1252Z" fill="#FAB60C"/>
<path d="M193.334 84.6853L192.876 108.426L192.846 110.079L180.651 92.1252L133.422 67.9795L193.334 84.6853Z" fill="#FF8D00"/>
<path d="M328.004 168.58C327.122 171.188 326.488 172.718 326.46 172.781L324.934 172.145C324.94 172.131 325.574 170.598 326.437 168.049L328.004 168.58ZM323.845 113.347L322.692 114.533C321.689 113.556 320.582 112.644 319.405 111.821L320.349 110.467C321.6 111.339 322.775 112.31 323.845 113.347ZM307.983 105.214L307.616 106.825C306.258 106.515 304.827 106.258 303.358 106.059L303.581 104.422C305.097 104.628 306.576 104.894 307.983 105.214ZM316.458 108.169L315.727 109.649C314.482 109.032 313.149 108.479 311.764 108.001L312.305 106.438C313.753 106.941 315.153 107.523 316.458 108.169ZM328.908 159.646L330.509 160.05C330.124 161.584 329.729 163.023 329.342 164.338L327.757 163.874C328.138 162.575 328.527 161.158 328.908 159.646ZM330.659 151.082L332.29 151.337C332.057 152.839 331.788 154.302 331.498 155.715L329.881 155.38C330.164 153.996 330.428 152.557 330.659 151.082ZM299.039 105.64C297.645 105.555 296.196 105.512 294.69 105.514V103.86C296.23 103.86 297.713 103.903 299.138 103.99L299.039 105.64ZM331.263 133.731L332.907 133.545C333.069 134.98 333.174 136.482 333.221 138.01L331.569 138.058C331.526 136.577 331.423 135.122 331.263 133.731ZM325.487 117.747L326.818 116.768C327.694 117.962 328.494 119.259 329.198 120.623L327.728 121.379C327.064 120.092 326.31 118.87 325.487 117.747ZM331.537 142.412L333.19 142.478C333.134 143.903 333.024 145.397 332.866 146.925L331.222 146.755C331.376 145.261 331.484 143.8 331.537 142.412ZM329.407 125.317L330.967 124.778C331.445 126.16 331.853 127.617 332.179 129.113L330.566 129.465C330.254 128.032 329.865 126.638 329.407 125.317ZM230.163 118.323C228.604 118.521 227.131 118.667 225.738 118.769L225.621 117.121C226.983 117.022 228.426 116.878 229.954 116.683L230.163 118.323ZM221.276 117.295L221.286 118.947C219.737 118.955 218.234 118.898 216.813 118.781L216.949 117.135C218.321 117.251 219.778 117.303 221.276 117.295ZM212.697 116.531L212.36 118.148C210.776 117.82 209.308 117.384 208.005 116.857L208.625 115.325C209.839 115.818 211.207 116.223 212.697 116.531ZM238.91 116.823C237.463 117.129 236.011 117.408 234.554 117.66L234.275 116.03C235.645 115.793 237.078 115.52 238.569 115.206L238.91 116.823ZM290.332 105.636C288.926 105.711 287.475 105.82 285.979 105.968L285.819 104.322C287.343 104.174 288.816 104.063 290.247 103.986L290.332 105.636ZM203.721 111.914C203.723 111.92 204.067 112.506 205.022 113.28L203.98 114.563C202.837 113.633 202.371 112.883 202.29 112.741L203.721 111.914ZM273.004 107.952C271.608 108.234 270.181 108.542 268.72 108.876L268.351 107.267C269.825 106.929 271.268 106.619 272.678 106.335L273.004 107.952ZM281.64 106.481C280.236 106.671 278.786 106.894 277.313 107.15L277.033 105.52C278.531 105.265 279.996 105.038 281.415 104.843L281.64 106.481ZM264.456 109.906C263.068 110.257 261.655 110.631 260.214 111.029L259.774 109.436C261.227 109.034 262.652 108.659 264.049 108.305L264.456 109.906ZM255.52 110.652L255.988 112.235C255.113 112.494 254.229 112.761 253.336 113.035L251.771 113.509L251.303 111.926L252.851 111.458C253.749 111.183 254.641 110.913 255.52 110.652ZM247.517 114.729C246.042 115.133 244.615 115.502 243.231 115.84L242.837 114.237C244.209 113.9 245.624 113.536 247.083 113.136L247.517 114.729Z" fill="#575E84"/>
<path opacity="0.2" d="M351.338 567.733C315.223 567.733 285.946 563.173 285.946 557.547C285.946 551.922 315.223 547.361 351.338 547.361C387.453 547.361 416.73 551.922 416.73 557.547C416.73 563.173 387.453 567.733 351.338 567.733Z" fill="#3E4268"/>
<path d="M252.398 158.004C252.398 158.004 210.215 135.014 200.348 153.546C190.48 172.078 66.6625 415.74 60.3941 447.003C54.1256 478.266 150.402 522.462 150.402 522.462C150.402 522.462 215.418 578.382 235.774 511.826C256.127 445.27 210.884 194.975 252.398 158.004Z" fill="#BAC8E5"/>
<path opacity="0.05" d="M79.4143 399.577C92.9423 385.362 106.6 371.181 115.325 353.361C118.148 347.595 120.448 341.58 122.331 335.447C124.027 329.918 126.143 324.635 129.507 319.89C136.36 310.223 146.888 303.981 155.702 296.328C177.416 277.478 196.922 256.142 214.879 233.719C222.306 224.444 229.463 214.954 236.382 205.292C226.891 291.278 251.888 459.13 235.772 511.826C215.416 578.382 150.4 522.462 150.4 522.462C150.4 522.462 54.1235 478.266 60.392 447.003C61.7884 440.066 68.9749 422.652 79.4143 399.577Z" fill="#3E4268"/>
<path d="M161.489 448.917L135.825 485.259C135.825 485.259 180.787 538.088 202.874 505.359C219.541 480.664 161.489 448.917 161.489 448.917Z" fill="#BAC8E5"/>
<path opacity="0.2" d="M157.84 498.928C161.844 498.543 165.891 497.443 168.992 494.759C171.659 492.449 173.212 489.166 173.856 485.741C175.311 477.993 173.212 469.689 170.147 462.582C168.569 458.92 166.589 455.418 164.128 452.27C163.275 451.18 162.331 450.134 161.321 449.159L161.496 448.914C161.496 448.914 219.547 480.662 202.882 505.357C188.6 526.519 164.757 511.909 149.686 498.94C152.404 499.123 155.132 499.19 157.84 498.928Z" fill="#3E4268"/>
<path d="M248.42 142.749C221.911 144.521 87.0381 438.73 87.0381 438.73C87.0381 438.73 236.059 418.773 231.546 497.319C227.032 575.864 150.402 522.462 150.402 522.462C150.402 522.462 189.764 572.103 227.837 540.337C227.837 540.337 380.645 287.877 385.301 248.126C389.956 208.375 349.155 136.017 248.42 142.749Z" fill="#E1E6F4"/>
<path d="M64.1959 447.783C69.2463 440.663 78.3643 438.452 86.3149 436.598C117.846 429.853 152.184 436.314 178.603 455.028C191.574 464.487 204.376 477.007 207.552 493.43C211.277 513.53 187.977 522.534 171.905 516.063C156.602 510.314 144.738 498.677 134.925 486.052L134.537 485.542C134.537 485.542 134.908 485.035 134.908 485.037C141.229 476.375 153.748 459.363 160.606 450.118C151.932 445.975 142.717 442.929 133.394 441.01C118.215 437.95 102.435 438.027 87.2026 440.979C77.9488 442.779 62.0395 447.173 67.1386 459.55C77.0915 482.05 128.113 510.07 150.406 522.464C136.047 515.828 122.092 508.326 108.474 500.213C95.3113 491.928 52.6418 466.408 64.1959 447.783ZM136.696 485.469C146.612 496.877 158.543 507.951 172.973 512.869C180.064 515.214 187.944 515.163 194.519 511.511C210.568 503.634 201.9 484.717 192.877 474.421C184.093 464.081 172.925 456.007 160.663 450.142C154.368 459.493 142.851 476.47 136.696 485.469Z" fill="#F1F2FF"/>
<path d="M250.603 187.515C258.527 192.606 266.475 197.64 274.444 202.613C275.652 200.656 276.862 198.702 278.076 196.752C275.204 190.407 272.369 184.027 269.572 177.608C274.44 180.764 279.314 183.895 284.201 187.006C285.427 185.071 286.657 183.137 287.891 181.21C279.991 176.143 272.114 171.016 264.26 165.833C263.008 167.787 261.757 169.743 260.513 171.705C263.301 178.164 266.135 184.604 269.015 191.023C264.098 187.898 259.192 184.748 254.293 181.579C253.059 183.551 251.829 185.531 250.603 187.515ZM242.95 210.73C244.764 207.692 246.584 204.662 248.416 201.643C250.027 202.658 251.64 203.671 253.255 204.683C251.642 207.346 250.035 210.017 248.436 212.694C249.942 213.626 251.446 214.559 252.954 215.487C254.549 212.816 256.152 210.151 257.761 207.494C259.512 208.586 261.265 209.675 263.02 210.761C261.206 213.756 259.402 216.762 257.605 219.777C259.171 220.736 260.738 221.692 262.307 222.645C265.275 217.661 268.271 212.695 271.295 207.745C263.31 202.792 255.345 197.782 247.402 192.711C244.33 197.725 241.286 202.756 238.27 207.804C239.829 208.785 241.387 209.759 242.95 210.73ZM236.183 211.31C234.902 213.47 233.626 215.632 232.354 217.797C237.482 222.598 242.639 227.367 247.826 232.103C241.102 230.034 234.379 227.949 227.661 225.847C226.366 228.085 225.075 230.326 223.788 232.574C228.828 237.568 233.901 242.528 239.006 247.455C232.417 245.175 225.831 242.875 219.25 240.557C218.002 242.768 216.757 244.985 215.517 247.206C224.86 249.839 234.209 252.443 243.562 255.021C244.943 252.567 246.331 250.117 247.725 247.67C243.133 243.193 238.569 238.689 234.033 234.156C240.137 235.987 246.241 237.807 252.35 239.612C253.756 237.18 255.167 234.756 256.583 232.337C249.737 225.409 242.938 218.399 236.183 211.31ZM232.94 274.805C235.897 269.364 235.619 263.638 230.776 260.576C229.568 262.759 228.364 264.946 227.164 267.136C228.95 268.405 229.189 270.152 228.244 271.887C227.261 273.693 225.76 274.351 224.325 273.533C219.765 270.904 229.152 259.642 220.472 254.638C215.855 251.91 211.087 254.328 208.154 259.699C205.104 265.286 205.73 270.622 210.282 273.573C211.491 271.319 212.707 269.068 213.928 266.82C212.416 265.799 212.108 264.082 212.988 262.388C213.77 260.874 215.118 260.177 216.652 261.073C220.89 263.537 212.116 275.071 220.371 279.773C224.509 282.124 229.73 280.715 232.94 274.805ZM197.216 280.958C203.88 284.775 210.558 288.552 217.248 292.291C215.813 295.023 214.386 297.763 212.965 300.508C214.52 301.367 216.072 302.224 217.627 303.079C220.12 298.256 222.639 293.446 225.184 288.65C216.956 284.041 208.746 279.373 200.554 274.645C199.437 276.747 198.325 278.851 197.216 280.958ZM187.494 312.007C189.113 308.77 190.743 305.542 192.383 302.323C194.055 303.254 195.729 304.182 197.403 305.108C195.958 307.947 194.521 310.793 193.092 313.646C194.652 314.5 196.213 315.353 197.775 316.202C199.2 313.355 200.633 310.515 202.074 307.684C203.892 308.683 205.708 309.68 207.528 310.673C205.904 313.867 204.291 317.071 202.686 320.284C204.309 321.159 205.933 322.033 207.558 322.904C210.213 317.584 212.894 312.287 215.6 307.015C207.319 302.484 199.058 297.893 190.814 293.242C188.064 298.578 185.338 303.941 182.64 309.328C184.258 310.225 185.877 311.117 187.494 312.007ZM180.796 313.024C177.403 319.842 174.051 326.7 170.742 333.597C172.371 334.473 174.002 335.345 175.634 336.215C176.765 333.858 177.898 331.507 179.039 329.161C185.745 332.772 192.469 336.347 199.212 339.888C200.246 337.752 201.284 335.619 202.327 333.487C195.605 329.929 188.893 326.331 182.192 322.695C183.342 320.357 184.497 318.022 185.654 315.691C184.037 314.804 182.415 313.916 180.796 313.024ZM169.404 336.386C166.107 343.295 162.85 350.242 159.638 357.228C161.281 358.085 162.923 358.938 164.567 359.792C165.663 357.404 166.765 355.021 167.872 352.644C174.635 356.182 181.41 359.68 188.197 363.14C189.201 360.975 190.21 358.815 191.221 356.658C184.448 353.177 177.687 349.656 170.938 346.097C172.055 343.726 173.176 341.361 174.303 339C172.669 338.129 171.038 337.259 169.404 336.386ZM155.122 380.739C156.61 377.379 158.106 374.027 159.611 370.683C161.32 371.556 163.03 372.43 164.741 373.299C163.412 376.251 162.093 379.206 160.783 382.166C162.378 382.966 163.973 383.767 165.568 384.564C166.873 381.611 168.188 378.662 169.512 375.717C171.368 376.656 173.224 377.59 175.083 378.522C173.593 381.84 172.112 385.167 170.64 388.503C172.298 389.324 173.958 390.143 175.616 390.96C178.045 385.444 180.506 379.943 182.999 374.457C174.54 370.205 166.097 365.892 157.67 361.52C155.14 367.065 152.638 372.633 150.161 378.226C151.815 379.065 153.468 379.904 155.122 380.739ZM142.936 394.808C140.03 401.581 142.218 406.77 146.673 408.932C149.889 410.497 153.71 410.071 156.675 406.409C159.159 410.166 161.654 413.908 164.163 417.631C165.215 415.118 166.275 412.607 167.337 410.104C164.915 406.658 162.503 403.199 160.102 399.725C160.331 399.192 160.562 398.659 160.791 398.128C164.007 399.707 167.226 401.277 170.446 402.838C171.398 400.627 172.355 398.42 173.316 396.215C164.802 392.052 156.304 387.828 147.82 383.544C146.179 387.289 144.551 391.043 142.936 394.808ZM148.27 396.979C148.866 395.593 149.462 394.206 150.06 392.824C152.167 393.874 154.277 394.918 156.387 395.959C155.791 397.34 155.197 398.72 154.605 400.102C153.531 402.607 151.831 403.195 149.827 402.212C147.93 401.284 147.192 399.492 148.27 396.979ZM319.463 195.281C317.031 195.818 270.539 276.423 270.539 276.423C270.539 276.423 303.742 294.182 314.009 311.512C314.009 311.512 360.089 242.671 360.053 236.362C360.016 230.05 340.487 190.64 319.463 195.281ZM259.425 296.657C259.425 296.657 299.624 321.094 298.183 330.831C296.742 340.569 279.868 378.579 276.207 380.018C272.547 381.457 235.151 351.006 232.506 347.575C229.86 344.146 259.425 296.657 259.425 296.657ZM224.406 366.305L199.314 420.707L209.076 425.326C209.076 425.326 233.949 379.866 233.307 376.266C232.667 372.667 224.406 366.305 224.406 366.305ZM243.791 378.567L230.61 407.114L240.392 410.444C240.392 410.444 249.291 384.568 249.097 383.451C248.904 382.334 243.791 378.567 243.791 378.567ZM269.264 394.168C269.264 394.168 245.846 450.994 241.272 449.415C236.698 447.836 234.472 439.983 234.472 439.983C234.472 439.983 255.26 393.102 260.73 390.635C266.2 388.167 269.264 394.168 269.264 394.168Z" fill="#BAC8E5"/>
<path d="M367.824 540.029C367.824 540.029 368.041 531.503 367.026 524.428C366.693 522.111 357.503 523.337 357.401 524.853C357.008 530.759 358.281 540.096 360.186 542.175C362.091 544.257 366.689 543.969 367.824 540.029Z" fill="#EFD9D3"/>
<path d="M388.852 550.347L390.193 550.598C390.193 550.598 390.678 552.506 390.082 553.379C389.486 554.253 383.888 556.387 372.981 556.093C362.075 555.801 357.071 553.713 357.306 551.474C357.542 549.235 384.166 555.604 388.852 550.347Z" fill="#575E84"/>
<path d="M357.306 551.476C371.742 556.911 393.417 552.663 389.842 550C389.056 549.415 387.684 548.916 386.02 548.44C380.104 546.762 370.471 545.436 370.214 541.997C369.884 537.591 367.867 536.957 367.403 537.121C367.286 537.165 366.963 537.313 366.519 537.488C365.22 537.996 362.861 538.714 361.41 537.569C359.459 536.034 359.173 535.86 358.314 536.876C355.8 539.855 355.869 542.366 357.306 551.476Z" fill="#3E4268"/>
<path d="M366.476 536.413C366.672 537.443 367.064 538.612 367.524 539.569C368.681 541.964 367.13 543.32 370.584 547.599C374.033 551.875 386.396 548.725 386.023 548.44C380.107 546.762 370.43 544.364 370.172 540.925C369.842 536.519 367.826 535.884 367.361 536.049C367.242 536.089 366.922 536.239 366.476 536.413Z" fill="#575E84"/>
<path d="M323.039 247.617C323.21 249.401 323.38 251.249 323.546 253.164C328.278 305.785 331.118 388.104 348.91 495.604C350.876 507.543 353.048 519.801 355.411 532.358C356.111 536.113 368.729 532.682 368.729 532.682C367.553 476.689 388.568 349.445 399.189 289.21C402.286 271.564 404.503 259.662 405.012 256.988C405.041 256.797 405.074 256.606 405.109 256.415L323.039 247.617Z" fill="#3E4268"/>
<path opacity="0.2" d="M323.039 247.617C323.21 249.401 323.38 251.249 323.546 253.164C328.278 305.785 331.118 388.104 348.91 495.604C350.578 488.661 352.246 481.72 353.898 474.76C358.776 454.341 363.587 433.904 368.382 413.449C370.77 403.312 373.175 393.16 375.544 383.023C377.879 373.001 379.053 362.736 379.845 352.477C380.619 342.35 381.031 332.198 381.87 322.075C382.216 317.965 382.778 313.863 382.976 309.749C383.144 306.228 383.232 302.639 384.056 299.202C384.735 296.32 385.976 293.434 388.489 291.685C390.665 290.189 393.336 289.415 395.945 289.198C396.984 289.091 398.089 289.103 399.189 289.21C399.386 289.233 399.601 289.253 399.797 289.275C402.6 271.556 404.568 259.696 405.012 256.991C405.041 256.799 405.074 256.608 405.109 256.417L323.039 247.617Z" fill="#3E4268"/>
<path d="M334.116 544.423C334.116 544.423 339.64 526.566 337.168 525.161C334.695 523.757 328.719 522.892 327.257 524.018C325.798 525.145 325.071 544.465 327.243 547.116C329.416 549.767 332.476 549.127 334.116 544.423Z" fill="#EFD9D3"/>
<path d="M352.98 555.373C352.98 555.373 353.067 558.04 350.68 559.175C344.754 561.99 325.407 558.338 324.499 556.524C323.589 554.711 323.98 552.447 323.98 552.447L352.98 555.373Z" fill="#3E4268"/>
<path d="M333.465 539.849C333.465 539.849 328.445 539.847 326.192 538.961C324.141 538.155 322.406 551.192 324.08 553.442C325.756 555.691 340.721 557.126 340.721 557.126C340.721 557.126 337.042 550.933 336.215 545.779C335.389 540.623 338.094 540.919 333.465 539.849Z" fill="#3E4268"/>
<path d="M352.98 555.373C352.98 555.373 347.107 559.515 338.39 556.834C335.638 555.987 333.235 542.749 334.605 540.124C335.975 537.5 338.388 540.205 338.388 540.205C338.388 540.205 337.069 552.909 352.98 555.373Z" fill="#575E84"/>
<path d="M337.637 555.972C337.637 555.972 341.763 551.838 346.69 551.85C351.617 551.862 352.979 555.375 352.979 555.375C352.979 555.375 348.725 561.187 337.637 555.972ZM316.845 249.624C316.856 250.529 316.868 251.435 316.878 252.376C316.9 253.48 316.906 254.633 316.91 255.787C316.924 257.894 316.939 260.037 316.935 262.227C316.931 263.034 316.929 263.857 316.924 264.682C316.918 266.246 316.914 267.811 316.892 269.424C316.862 274.744 316.776 280.307 316.667 286.12C315.917 329.186 314.059 385.252 317.804 454.73C319.105 479.071 321.109 505.059 324.077 532.719C324.478 536.516 337.842 535.556 337.842 535.556C340.947 482.368 370.191 367.43 386.727 305.841C392.939 282.67 397.355 267.051 397.912 265.119C397.949 264.971 397.967 264.907 397.967 264.907L316.845 249.624Z" fill="#575E84"/>
<path d="M339.023 298.969C350.533 293.772 365.528 280.635 368.669 284.235C371.81 287.834 371.44 289.879 371.44 289.879C371.44 289.879 343.299 305.059 340.588 304.392C337.876 303.723 339.023 298.969 339.023 298.969Z" fill="#3E4268"/>
<path opacity="0.2" d="M316.848 249.624C316.858 250.529 316.87 251.435 316.88 252.376C316.902 253.48 316.908 254.633 316.912 255.787C316.927 257.894 316.941 260.037 316.937 262.227C316.933 263.034 316.931 263.857 316.927 264.682C316.906 266.23 316.9 267.811 316.894 269.424C316.833 274.659 316.762 280.242 316.669 286.12C315.919 329.186 314.061 385.252 317.806 454.73C318.323 453.82 318.824 452.894 319.29 451.966C323.758 442.917 325.524 432.634 324.928 422.589C324.543 416.092 323.199 409.718 323.061 403.176C322.938 396.749 323.817 390.365 326.008 384.291C328.268 378.039 331.946 372.397 334.613 366.319C336.916 361.072 338.399 355.606 338.752 349.869C339.035 345 338.476 340.211 337.951 335.372C337.534 331.507 337.183 327.646 336.982 323.753C336.557 315.525 336.65 306.93 339.017 298.967C341.151 291.837 345.474 285.372 352.766 282.814C357.136 281.274 362.214 280.986 366.738 281.902C371.31 282.82 375.337 285.208 378.464 288.659C382.779 293.408 385.199 299.544 386.725 305.841C386.95 306.753 387.14 307.679 387.333 308.606C393.255 283.832 397.399 267.166 397.91 265.119C397.947 264.971 397.965 264.907 397.965 264.907L316.848 249.624Z" fill="#3E4268"/>
<path d="M310.199 262.116C315.681 272.559 407.686 280.311 408.381 265.355C410.28 224.412 402.009 98.6673 354.601 96.1887C318.648 94.308 290.121 223.871 310.199 262.116Z" fill="#337CCC"/>
<path d="M305.011 145.419C305.011 145.419 275.551 199.503 291.104 212.818C300.336 220.722 322.307 166.097 322.307 166.097L305.011 145.419Z" fill="#EBC0B8"/>
<path d="M342.786 100.252C342.786 100.252 298.483 132.985 290.127 162.572C297.048 167.613 310.241 172.254 320.583 173.484C351.326 124.311 342.786 100.252 342.786 100.252Z" fill="#4A97DD"/>
<path d="M353.273 43.5077C353.273 43.5077 345.219 39.5638 341.737 46.3977C338.256 53.2316 341.496 56.3365 341.496 56.3365C341.496 56.3365 338.092 57.4288 339.828 64.3053C341.567 71.1838 348.19 71.427 348.19 71.427C348.19 71.427 343.312 82.3528 353.825 82.7379C364.339 83.1229 379.685 57.1208 353.273 43.5077Z" fill="#3E4268"/>
<path d="M368.757 84.6655C368.757 84.6655 368.939 110.078 364.507 109.492C361.031 109.032 349.99 96.7201 349.99 96.7201L354.519 69.3804L368.757 84.6655Z" fill="#EFD9D3"/>
<path opacity="0.1" d="M358.627 75.9571C358.152 76.9745 358.207 78.3121 358.262 79.4045C358.418 82.5316 359.216 85.6101 361.436 87.9246C362.579 89.1163 363.89 90.1316 365.017 91.3395C366.227 92.6346 367.068 94.1242 367.651 95.7921C367.722 95.9968 367.767 96.2076 367.834 96.4123L368.756 84.6657L360.698 76.0139C359.988 75.5457 359.095 74.958 358.627 75.9571Z" fill="#231F20"/>
<path d="M383.587 73.4436L380.867 74.0212C380.867 74.0212 381.062 74.5238 381.309 75.3426C382.227 78.4697 383.785 86.2237 377.73 89.3873C372.065 92.3422 362.848 85.7981 358.436 82.1988C356.877 80.924 355.917 80.016 355.917 80.016L353.908 70.3245C353.908 70.3245 349.709 67.396 351.018 63.4845C352.315 59.5731 354.587 61.8855 354.587 61.8855C354.587 61.8855 363.563 43.4347 378.65 51.6022C378.65 51.6022 380.733 58.736 380.912 64.8546C380.908 64.8505 384.13 71.044 383.587 73.4436Z" fill="#EFD9D3"/>
<path d="M374.163 56.8554C376.51 56.525 378.289 58.2761 378.375 58.3612C378.49 58.4773 378.555 58.6343 378.555 58.798C378.555 58.9616 378.49 59.1186 378.375 59.2347C378.258 59.3503 378.101 59.4154 377.937 59.4158C377.773 59.4161 377.616 59.3518 377.499 59.2367C377.426 59.1638 375.697 57.4877 373.65 58.2619C373.332 58.3876 372.973 58.2234 372.852 57.9032C372.823 57.8272 372.809 57.7463 372.812 57.665C372.814 57.5837 372.832 57.5037 372.866 57.4295C372.899 57.3553 372.947 57.2884 373.006 57.2327C373.065 57.177 373.135 57.1335 373.211 57.1047C373.517 56.9847 373.837 56.901 374.163 56.8554Z" fill="#3E4268"/>
<path d="M354.587 61.8753C354.587 61.8753 356.749 68.3647 359.041 68.6606C361.333 68.9585 363.192 58.7056 364.941 56.2554C364.941 56.2554 380.812 59.2163 384.257 47.8751C387.704 36.5359 378.609 40.0157 378.609 40.0157C378.609 40.0157 377.533 30.5228 372.322 33.9093C365.204 38.5362 362.314 35.2753 358.121 35.6563C353.928 36.0373 350.162 40.9338 351.224 45.7856C351.224 45.7856 345.71 56.4317 354.587 61.8753Z" fill="#3E4268"/>
<path d="M352.381 65.7022C352.28 65.7002 352.183 65.6353 352.146 65.534C351.129 62.8162 353.338 61.9083 353.36 61.9002C353.494 61.8475 353.642 61.9123 353.695 62.0441C353.747 62.1778 353.682 62.3278 353.551 62.3805C353.478 62.4109 351.796 63.1202 352.631 65.3536C352.645 65.3933 352.65 65.436 352.645 65.478C352.639 65.5199 352.624 65.5599 352.599 65.5944C352.574 65.6288 352.542 65.6567 352.504 65.6755C352.466 65.6943 352.424 65.7035 352.381 65.7022Z" fill="#3E4268"/>
<path d="M376.071 73.087C375.6 74.6557 373.624 75.4521 371.659 74.8624C369.693 74.2726 368.479 72.5236 368.949 70.955C369.419 69.3863 371.395 68.5919 373.361 69.1816C375.329 69.7673 376.541 71.5163 376.071 73.087Z" fill="#E5C9C3"/>
<path d="M381.339 81.8823C381.311 83.1125 380.036 84.0832 378.494 84.0468C376.952 84.0103 375.723 82.9828 375.752 81.7526C375.78 80.5204 377.055 79.5516 378.597 79.5881C380.14 79.6246 381.368 80.6501 381.339 81.8823ZM378.468 63.0606C378.443 64.0273 377.74 64.7934 376.893 64.7732C376.054 64.7529 375.387 63.9544 375.411 62.9856C375.415 62.8154 375.444 62.6553 375.496 62.5033C375.646 62.6533 375.853 62.7546 376.08 62.7607C376.189 62.7635 376.298 62.7448 376.4 62.7056C376.502 62.6663 376.595 62.6074 376.674 62.5321C376.753 62.4568 376.817 62.3666 376.861 62.2667C376.905 62.1668 376.929 62.0592 376.931 61.95C376.937 61.6926 376.83 61.4636 376.65 61.3055C376.758 61.2824 376.869 61.2715 376.98 61.2731C377.825 61.2954 378.492 62.0939 378.468 63.0606Z" fill="#3E4268"/>
<path d="M420.678 157.542C420.678 157.542 420.52 149.425 418.292 149.066C416.065 148.708 416.667 157.445 416.667 157.445L420.678 157.542Z" fill="#EBC0B8"/>
<path d="M420.066 144.513C418.925 156.008 417.847 166.859 416.832 177.114C416.779 177.637 416.319 178.111 415.8 178.182C398.801 180.443 379.541 181.362 357.503 180.644C356.737 180.618 356.074 180.085 356.03 179.448C355.168 166.845 354.246 153.331 353.253 138.808C353.225 138.386 353.395 138.009 353.693 137.752L353.697 137.748C353.959 137.519 354.313 137.381 354.717 137.381C379.395 137.555 400.848 139.635 419.185 143.191C419.432 143.238 419.645 143.388 419.799 143.587C419.833 143.627 419.864 143.672 419.888 143.714C419.894 143.724 419.896 143.728 419.896 143.728C420.033 143.966 420.092 144.24 420.066 144.513Z" fill="#BAC8E5"/>
<path d="M419.891 143.728C419.891 143.728 388.271 182.316 353.688 137.752L353.692 137.748C353.953 137.519 354.308 137.381 354.711 137.381C379.39 137.555 400.842 139.635 419.179 143.191C419.427 143.238 419.639 143.388 419.793 143.587C419.84 143.651 419.866 143.694 419.883 143.714C419.889 143.724 419.891 143.728 419.891 143.728Z" fill="#D3DAEA"/>
<path d="M419.182 143.192C419.468 143.234 419.741 143.439 419.91 143.71L419.924 143.731L419.912 143.747C416.395 148.003 412.083 151.665 407.174 154.58C394.613 162.151 379.042 161.888 365.52 150.447C361.057 146.898 357.223 142.422 353.664 137.766L353.648 137.744C353.927 137.501 354.321 137.367 354.716 137.379C354.331 137.387 353.97 137.531 353.715 137.772L353.719 137.734C369.442 157.35 388.17 164.603 406.872 153.967C411.799 151.219 416.179 147.717 419.877 143.708V143.745C419.877 143.745 419.861 143.719 419.869 143.731C419.709 143.457 419.464 143.254 419.182 143.192Z" fill="#9AACCC"/>
<path d="M380.325 159.123C380.325 159.123 388.771 152.589 399.129 159.285C399.127 159.285 391.657 166.675 380.325 159.123Z" fill="#BAC8E5"/>
<path d="M358.085 179.215C366.352 168.157 379.016 155.33 390.347 155.503C396.148 155.851 401.152 159.432 405.365 163.492C409.412 167.454 412.914 172.042 415.865 177.026C412.663 172.395 409.035 168.048 404.935 164.27C400.787 160.531 395.856 157.059 390.317 156.788C379.436 156.63 366.737 169.152 358.085 179.215Z" fill="#9AACCC"/>
<path d="M420.678 157.542C420.678 157.542 405.247 154.599 404.374 157.41C403.967 158.724 407.629 159.911 411.674 160.846C406.684 159.883 401.095 159.461 401.334 161.038C401.518 162.252 407.463 163.565 411.453 164.656C408.65 164.159 402.331 163.255 401.972 164.445C401.514 165.959 407.331 167.649 411.21 168.314C408.873 168.077 404.708 167.795 404.548 168.92C404.406 169.915 405.428 170.963 410.31 171.782C413.16 172.26 412.977 172.789 414.315 172.752C415.346 172.724 416.42 172.809 417.241 172.375C421.189 170.292 422.652 158.997 420.678 157.542Z" fill="#EFD9D3"/>
<path opacity="0.2" d="M404.913 169.151C405.077 168.642 406.761 168.541 406.911 168.658C406.911 168.658 406.743 170.018 406.607 170.237C406.476 170.456 404.749 169.657 404.913 169.151ZM402.141 164.582C402.305 164.074 403.989 163.972 404.141 164.09C404.141 164.09 403.971 165.45 403.837 165.669C403.701 165.888 401.976 165.091 402.141 164.582ZM401.788 160.851C401.952 160.343 403.636 160.241 403.786 160.359C403.786 160.359 403.616 161.721 403.482 161.938C403.348 162.157 401.624 161.36 401.788 160.851ZM404.935 157.319C405.099 156.81 406.784 156.709 406.934 156.826C406.934 156.826 406.765 158.188 406.63 158.405C406.496 158.624 404.769 157.828 404.935 157.319Z" fill="white"/>
<path d="M417.914 170.414C417.882 170.41 417.851 170.398 417.827 170.373C417.764 170.315 417.76 170.215 417.819 170.152C420.19 167.581 419.26 164.942 419.25 164.916C419.236 164.875 419.238 164.828 419.258 164.79C420.464 162.449 419.331 160.232 419.321 160.21C419.28 160.133 419.311 160.039 419.386 159.999C419.422 159.98 419.465 159.976 419.504 159.988C419.544 160 419.577 160.027 419.596 160.064C419.647 160.159 420.798 162.413 419.564 164.875C419.698 165.321 420.332 167.885 418.048 170.363C418.012 170.402 417.963 170.418 417.914 170.414ZM414.72 161.533C412.71 161.298 410.189 160.647 410.063 160.615C410.025 160.603 409.993 160.577 409.973 160.542C409.954 160.506 409.948 160.465 409.959 160.426C409.969 160.388 409.994 160.354 410.028 160.333C410.062 160.312 410.103 160.305 410.142 160.313C410.178 160.323 413.778 161.251 415.782 161.304C415.824 161.305 415.863 161.323 415.891 161.353C415.92 161.383 415.935 161.423 415.934 161.464C415.933 161.506 415.916 161.545 415.886 161.573C415.856 161.602 415.816 161.617 415.774 161.616C415.454 161.606 415.097 161.576 414.72 161.533ZM413.668 165.155C411.881 164.946 410.014 164.528 409.99 164.522C409.907 164.504 409.852 164.419 409.872 164.336C409.876 164.316 409.884 164.296 409.896 164.279C409.908 164.262 409.923 164.248 409.94 164.237C409.958 164.226 409.977 164.218 409.998 164.215C410.018 164.212 410.039 164.213 410.059 164.218C410.089 164.227 413.123 164.905 415.132 164.956C415.221 164.958 415.286 165.029 415.284 165.116C415.282 165.203 415.209 165.27 415.124 165.268C414.674 165.256 414.175 165.216 413.668 165.155ZM413.046 168.813C411.315 168.61 409.583 168.207 409.56 168.203C409.475 168.183 409.425 168.099 409.445 168.014C409.449 167.994 409.458 167.975 409.47 167.959C409.482 167.942 409.497 167.928 409.515 167.917C409.532 167.906 409.552 167.899 409.572 167.896C409.593 167.893 409.613 167.894 409.633 167.899C409.662 167.905 412.475 168.56 414.483 168.61C414.525 168.611 414.564 168.629 414.592 168.659C414.621 168.689 414.636 168.729 414.635 168.77C414.634 168.812 414.617 168.851 414.587 168.879C414.557 168.908 414.516 168.923 414.475 168.922C414.023 168.912 413.535 168.87 413.046 168.813Z" fill="#EBC0B8"/>
<path d="M296.474 191.228C310.31 176.818 348.513 164.018 348.513 164.018L355.104 172.781C355.104 172.781 320.419 215.118 302.001 215.3C279.256 215.523 290.447 197.504 296.474 191.228Z" fill="#EFD9D3"/>
<path d="M351.007 158.829C349.54 160.487 348.303 162.814 348.514 164.018C348.405 164.796 343.502 169.638 342.011 171.066L347.58 179.59L354.981 173.02C354.981 173.02 356.919 172.296 360.097 170.736C363.274 169.175 375.42 162.864 374.188 161.679C372.956 160.493 366.25 164.082 366.25 164.082C366.25 164.082 376.01 156.679 374.553 155.467C373.096 154.253 364.462 160.481 364.462 160.481C364.462 160.481 374.893 152.034 374.227 150.1C373.56 148.167 362.458 157.65 362.458 157.65C362.458 157.65 370.611 147.914 369.245 146.629C367.881 145.344 359.683 155.206 357.553 156.867C356.171 157.946 354.568 157.561 355.018 155.779C355.466 153.998 353.676 150.82 352.326 151.055C350.977 151.292 352.474 157.174 351.007 158.829Z" fill="#EFD9D3"/>
<g opacity="0.5">
<path d="M351.975 154.116C351.975 154.116 352.747 154.221 352.993 153.94C353.238 153.658 352.464 151.479 352.156 151.562C351.845 151.648 351.781 154.013 351.975 154.116ZM367.459 147.631C367.459 147.631 368.018 148.285 368.48 148.403C368.942 148.52 369.259 147.146 369.034 146.879C368.805 146.611 367.905 146.867 367.459 147.631ZM372.361 150.715C372.363 151.037 372.68 151.619 373.142 151.737C373.604 151.854 374.212 150.417 373.985 150.148C373.76 149.88 372.359 150.239 372.361 150.715ZM372.775 156.13C372.777 156.453 373.022 156.911 373.484 157.028C373.946 157.146 374.625 155.831 374.398 155.563C374.173 155.296 372.773 155.654 372.775 156.13ZM372.483 162.004C372.485 162.324 372.517 162.821 372.98 162.938C373.442 163.056 374.224 161.931 373.997 161.663C373.772 161.396 372.479 161.528 372.483 162.004Z" fill="white"/>
</g>
<path d="M477.372 380.456C478.679 380.383 479.913 380.046 481.046 379.45C484.171 377.857 486.097 374.501 485.898 370.928L483.034 319.303C482.759 314.332 478.485 310.513 473.507 310.789L421.894 313.653C416.916 313.928 413.092 318.196 413.368 323.168L416.231 374.793C416.345 376.844 417.113 378.729 418.453 380.243C420.232 382.33 422.915 383.475 425.759 383.317L477.372 380.456Z" fill="#BAC8E5"/>
<path d="M418.053 322.909L420.917 374.534C420.973 375.541 421.352 376.439 421.967 377.132C422.81 378.121 424.088 378.707 425.495 378.63L477.108 375.766C477.74 375.732 478.332 375.57 478.857 375.292C480.332 374.54 481.303 372.957 481.204 371.188L478.34 319.563C478.209 317.171 476.166 315.345 473.762 315.477L422.149 318.341C419.747 318.476 417.921 320.517 418.053 322.909Z" fill="#F1F2FF"/>
<path d="M465.449 354.789L471.381 343.057C472.345 341.148 475.017 341 476.188 342.792L479.954 348.553L481.21 371.189C481.307 372.959 480.339 374.541 478.863 375.293C478.338 375.569 477.747 375.731 477.114 375.767L454.197 377.038L465.449 354.789ZM424.595 353.845L429.759 361.743L440.269 377.81L425.499 378.629C424.093 378.708 422.814 378.12 421.971 377.131C421.357 376.436 420.978 375.54 420.921 374.533L419.788 354.113C420.755 352.203 423.424 352.055 424.595 353.845Z" fill="#D3DAEA"/>
<path d="M429.757 361.743L445.132 331.331C446.096 329.422 448.767 329.274 449.939 331.063L465.447 354.787L478.859 375.291C478.334 375.567 477.743 375.729 477.11 375.765L425.497 378.629C424.091 378.708 422.812 378.12 421.969 377.131L429.757 361.743Z" fill="#BAC8E5"/>
<path d="M424.748 328.627C424.943 332.148 427.956 334.843 431.475 334.646C434.995 334.452 437.69 331.44 437.494 327.92C437.297 324.4 434.286 321.704 430.767 321.901C427.249 322.095 424.554 325.107 424.748 328.627Z" fill="#D3DAEA"/>
<path d="M337.666 431.473C337.666 431.473 361.253 439.545 348.438 471.315C348.438 471.315 319.718 455.035 337.666 431.473Z" fill="#E1E6F4"/>
<g opacity="0.52">
<path d="M348.014 470.405L344.672 460.809C343.575 457.609 342.483 454.408 341.474 451.184C340.961 449.575 340.464 447.962 340.006 446.338C339.534 444.719 339.1 443.09 338.705 441.452C338.32 439.812 337.965 438.165 337.734 436.499C337.493 434.837 337.364 433.145 337.67 431.473C337.42 432.281 337.26 433.132 337.236 433.986C337.183 434.839 337.205 435.694 337.256 436.547C337.378 438.252 337.635 439.94 337.959 441.612C338.61 444.958 339.53 448.237 340.541 451.48C341.575 454.716 342.71 457.917 343.958 461.072C345.193 464.234 346.54 467.349 348.014 470.405Z" fill="white"/>
</g>
<path d="M424.711 519.268C424.711 519.268 417.911 543.251 385.501 532.155C385.501 532.153 400.223 502.605 424.711 519.268Z" fill="#F1F2FF"/>
<g opacity="0.52">
<path d="M386.389 531.679L395.792 527.828C398.93 526.561 402.067 525.301 405.232 524.119C406.811 523.519 408.396 522.94 409.993 522.395C411.585 521.837 413.189 521.317 414.804 520.834C416.422 520.362 418.047 519.92 419.699 519.6C421.344 519.27 423.029 519.051 424.715 519.265C423.894 519.061 423.035 518.945 422.182 518.968C421.326 518.959 420.473 519.03 419.624 519.124C417.93 519.336 416.256 519.683 414.604 520.096C411.298 520.923 408.072 522.02 404.89 523.203C401.714 524.409 398.579 525.714 395.494 527.129C392.402 528.531 389.362 530.043 386.389 531.679Z" fill="white"/>
</g>
<path d="M289.551 502.637C289.551 502.637 316.444 492.548 328.311 530.193C328.309 530.193 290.835 536.743 289.551 502.637Z" fill="#F1F2FF"/>
<g opacity="0.52">
<path d="M327.264 529.697L317.262 523.607C313.942 521.564 310.629 519.515 307.37 517.387C305.734 516.331 304.111 515.259 302.516 514.15C300.909 513.056 299.33 511.923 297.78 510.756C296.237 509.578 294.715 508.372 293.289 507.061C291.856 505.76 290.504 504.347 289.551 502.637C289.922 503.539 290.403 504.414 291.007 505.19C291.584 505.989 292.233 506.733 292.9 507.456C294.255 508.883 295.721 510.198 297.235 511.449C300.262 513.95 303.483 516.191 306.758 518.335C310.047 520.457 313.401 522.474 316.822 524.367C320.235 526.272 323.715 528.057 327.264 529.697Z" fill="white"/>
</g>
<path d="M380.482 509.87L407.848 478.21L416.115 489.14L380.482 509.87ZM315.532 492.149L297.653 476.216L303.978 471.581L315.532 492.149Z" fill="#D3DAEA"/>
<path d="M373.243 482.585C373.243 485.003 375.203 486.963 377.62 486.963C380.038 486.963 381.998 485.003 381.998 482.585C381.998 480.167 380.038 478.208 377.62 478.208C375.203 478.21 373.243 480.169 373.243 482.585ZM336.06 498.695C336.06 501.267 338.145 503.35 340.715 503.35C343.285 503.35 345.37 501.267 345.37 498.695C345.37 496.123 343.285 494.04 340.715 494.04C338.145 494.04 336.06 496.125 336.06 498.695Z" fill="#F1F2FF"/>
<path fill-rule="evenodd" clip-rule="evenodd" d="M432.327 162.402C432.327 162.402 436.873 186.027 415.281 190.247C415.283 190.247 441.419 193.978 432.327 162.402Z" fill="#BAC8E5"/>
<defs>
<radialGradient id="paint0_radial_2188_53224" cx="0" cy="0" r="1" gradientUnits="userSpaceOnUse" gradientTransform="translate(349.988 267.807) rotate(180) scale(197.909 197.909)">
<stop stop-color="#4A97DD"/>
<stop offset="1" stop-color="#D5E5FF"/>
</radialGradient>
</defs>
</svg>
