<svg width="81" height="81" viewBox="0 0 81 81" fill="none" xmlns="http://www.w3.org/2000/svg">
<rect x="0.5" y="0.78125" width="80" height="80" rx="8" fill="white"/>
<path d="M50.5 53.6407H42.5L33.6 59.5607C32.28 60.4407 30.5 59.5008 30.5 57.9008V53.6407C24.5 53.6407 20.5 49.6407 20.5 43.6407V31.6406C20.5 25.6406 24.5 21.6406 30.5 21.6406H50.5C56.5 21.6406 60.5 25.6406 60.5 31.6406V43.6407C60.5 49.6407 56.5 53.6407 50.5 53.6407Z" stroke="#090909" stroke-width="2" stroke-miterlimit="10" stroke-linecap="round" stroke-linejoin="round"/>
<path d="M40.4996 39.5V39.0801C40.4996 37.7201 41.3397 37 42.1797 36.42C42.9997 35.86 43.8196 35.1401 43.8196 33.8201C43.8196 31.9801 42.3396 30.5 40.4996 30.5C38.6596 30.5 37.1797 31.9801 37.1797 33.8201" fill="#090909"/>
<path d="M40.4996 39.5V39.0801C40.4996 37.7201 41.3397 37 42.1797 36.42C42.9997 35.86 43.8196 35.1401 43.8196 33.8201C43.8196 31.9801 42.3396 30.5 40.4996 30.5C38.6596 30.5 37.1797 31.9801 37.1797 33.8201" stroke="#090909" stroke-width="2" stroke-linecap="round" stroke-linejoin="round"/>
<path d="M40.491 44.2812H40.509" stroke="#6B6B6B" stroke-width="2" stroke-linecap="round" stroke-linejoin="round"/>
</svg>
