<svg width="81" height="81" viewBox="0 0 81 81" fill="none" xmlns="http://www.w3.org/2000/svg">
<rect x="0.5" y="0.78125" width="80" height="80" rx="8" fill="white"/>
<path d="M39.5 45.7812C42.8137 45.7812 45.5 43.095 45.5 39.7812C45.5 36.4675 42.8137 33.7812 39.5 33.7812C36.1863 33.7812 33.5 36.4675 33.5 39.7812C33.5 43.095 36.1863 45.7812 39.5 45.7812Z" stroke="#050505" stroke-width="2" stroke-miterlimit="10" stroke-linecap="round" stroke-linejoin="round"/>
<path d="M19.5 41.5441V38.0241C19.5 35.9441 21.2 34.2241 23.3 34.2241C26.92 34.2241 28.4 31.6641 26.58 28.5241C25.54 26.7241 26.16 24.3841 27.98 23.3441L31.44 21.3641C33.02 20.4241 35.06 20.9841 36 22.5641L36.22 22.9441C38.02 26.0841 40.98 26.0841 42.8 22.9441L43.02 22.5641C43.96 20.9841 46 20.4241 47.58 21.3641L51.04 23.3441C52.86 24.3841 53.48 26.7241 52.44 28.5241C50.62 31.6641 52.1 34.2241 55.72 34.2241C57.8 34.2241 59.52 35.9241 59.52 38.0241V41.5441C59.52 43.6241 57.82 45.3441 55.72 45.3441C52.1 45.3441 50.62 47.9041 52.44 51.0441C53.48 52.8641 52.86 55.1841 51.04 56.2241L47.58 58.2041C46 59.1441 43.96 58.5841 43.02 57.0041L42.8 56.6241C41 53.4841 38.04 53.4841 36.22 56.6241L36 57.0041C35.06 58.5841 33.02 59.1441 31.44 58.2041L27.98 56.2241C26.16 55.1841 25.54 52.8441 26.58 51.0441C28.4 47.9041 26.92 45.3441 23.3 45.3441C21.2 45.3441 19.5 43.6241 19.5 41.5441Z" stroke="#050505" stroke-width="2" stroke-miterlimit="10" stroke-linecap="round" stroke-linejoin="round"/>
</svg>
