<svg width="81" height="81" viewBox="0 0 81 81" fill="none" xmlns="http://www.w3.org/2000/svg">
<rect x="0.5" y="0.78125" width="80" height="80" rx="8" fill="white"/>
<path d="M37.0032 50.5V54.5601C37.0032 58.0001 33.8032 60.78 29.8632 60.78C25.9232 60.78 22.7031 58.0001 22.7031 54.5601V50.5C22.7031 53.94 25.9032 56.38 29.8632 56.38C33.8032 56.38 37.0032 53.92 37.0032 50.5Z" stroke="#090909" stroke-width="2" stroke-linecap="round" stroke-linejoin="round"/>
<path d="M36.9996 45.0046C36.9996 46.0046 36.7196 46.9246 36.2396 47.7246C35.0596 49.6646 32.6396 50.8846 29.8396 50.8846C27.0396 50.8846 24.6196 49.6446 23.4396 47.7246C22.9596 46.9246 22.6797 46.0046 22.6797 45.0046C22.6797 43.2846 23.4796 41.7446 24.7596 40.6246C26.0596 39.4846 27.8396 38.8047 29.8196 38.8047C31.7996 38.8047 33.5796 39.5046 34.8796 40.6246C36.1996 41.7246 36.9996 43.2846 36.9996 45.0046Z" stroke="#090909" stroke-width="2" stroke-linecap="round" stroke-linejoin="round"/>
<path d="M37.0032 45.0012V50.5012C37.0032 53.9412 33.8032 56.3812 29.8632 56.3812C25.9232 56.3812 22.7031 53.9212 22.7031 50.5012V45.0012C22.7031 41.5612 25.9032 38.7812 29.8632 38.7812C31.8432 38.7812 33.6232 39.4812 34.9232 40.6012C36.2032 41.7212 37.0032 43.2812 37.0032 45.0012Z" stroke="#090909" stroke-width="2" stroke-linecap="round" stroke-linejoin="round"/>
<path d="M59.5004 38.7196V42.8397C59.5004 43.9397 58.6204 44.8396 57.5004 44.8796H53.5804C51.4204 44.8796 49.4404 43.2996 49.2604 41.1396C49.1404 39.8796 49.6204 38.6996 50.4604 37.8796C51.2004 37.1196 52.2204 36.6797 53.3404 36.6797H57.5004C58.6204 36.7197 59.5004 37.6196 59.5004 38.7196Z" stroke="#090909" stroke-width="2" stroke-linecap="round" stroke-linejoin="round"/>
<path d="M19.5 37.7812V33.7812C19.5 28.3412 22.78 24.5412 27.88 23.9012C28.4 23.8212 28.94 23.7812 29.5 23.7812H47.5C48.02 23.7812 48.52 23.8012 49 23.8812C54.16 24.4812 57.5 28.3012 57.5 33.7812V36.6813H53.34C52.22 36.6813 51.2 37.1212 50.46 37.8812C49.62 38.7012 49.14 39.8812 49.26 41.1412C49.44 43.3012 51.42 44.8812 53.58 44.8812H57.5V47.7812C57.5 53.7812 53.5 57.7812 47.5 57.7812H42.5" stroke="#090909" stroke-width="2" stroke-linecap="round" stroke-linejoin="round"/>
</svg>
