<svg width="81" height="81" viewBox="0 0 81 81" fill="none" xmlns="http://www.w3.org/2000/svg">
<rect x="0.5" y="0.78125" width="80" height="80" rx="8" fill="white"/>
<path d="M42.5191 22.6219L54.3191 27.8619C57.7191 29.3619 57.7191 31.8419 54.3191 33.3419L42.5191 38.5819C41.1791 39.1819 38.9791 39.1819 37.6391 38.5819L25.8391 33.3419C22.4391 31.8419 22.4391 29.3619 25.8391 27.8619L37.6391 22.6219C38.9791 22.0219 41.1791 22.0219 42.5191 22.6219Z" stroke="#090909" stroke-width="2" stroke-linecap="round" stroke-linejoin="round"/>
<path d="M22.5 38.7812C22.5 40.4613 23.76 42.4012 25.3 43.0812L38.88 49.1213C39.92 49.5813 41.1 49.5813 42.12 49.1213L55.7 43.0812C57.24 42.4012 58.5 40.4613 58.5 38.7812" stroke="#090909" stroke-width="2" stroke-linecap="round" stroke-linejoin="round"/>
<path d="M22.5 48.7812C22.5 50.6413 23.6 52.3212 25.3 53.0812L38.88 59.1213C39.92 59.5813 41.1 59.5813 42.12 59.1213L55.7 53.0812C57.4 52.3212 58.5 50.6413 58.5 48.7812" stroke="#090909" stroke-width="2" stroke-linecap="round" stroke-linejoin="round"/>
</svg>
